<svg width="247" height="178" viewBox="0 0 247 178" fill="none" xmlns="http://www.w3.org/2000/svg">
<path d="M123.331 177.786C116.184 177.798 109.105 176.398 102.501 173.666C95.8969 170.935 89.8969 166.925 84.8469 161.868L15.8869 92.9077C5.70372 82.696 -0.0101864 68.8601 1.36327e-05 54.4387C0.0102136 40.0173 5.74371 26.1895 15.9414 15.9922C26.1391 5.79492 39.9669 0.0619164 54.3889 0.0522583C68.8099 0.0426003 82.6459 5.75709 92.8569 15.9407L161.817 84.9007C169.432 92.5088 174.619 102.205 176.721 112.763C178.824 123.32 177.746 134.264 173.626 144.209C169.505 154.154 162.527 162.652 153.574 168.63C144.621 174.607 134.097 177.793 123.332 177.786H123.331ZM92.8569 153.861C100.96 161.847 111.891 166.305 123.268 166.264C134.644 166.223 145.543 161.685 153.588 153.64C161.632 145.596 166.17 134.697 166.211 123.321C166.252 111.944 161.794 101.012 153.808 92.9097L84.8479 23.9497C80.8559 19.8998 76.1029 16.6798 70.8609 14.4752C65.6199 12.2706 59.9939 11.125 54.3079 11.1044C48.6209 11.0837 42.9869 12.1885 37.7299 14.355C32.4729 16.5215 27.6958 19.707 23.675 23.7278C19.6542 27.7486 16.4687 32.5253 14.3022 37.7827C12.1357 43.0401 11.0309 48.6742 11.0516 54.3604C11.0722 60.0467 12.2178 65.6727 14.4224 70.9142C16.627 76.1557 19.847 80.9092 23.8969 84.9007L92.8569 153.861Z" fill="url(#paint0_linear_2_13)"/>
<path d="M153.807 15.9408L129.338 40.4098L137.347 48.4188L161.816 23.9498C169.919 15.9639 180.85 11.5055 192.227 11.5467C203.603 11.588 214.502 16.1256 222.547 24.1702C230.591 32.2147 235.129 43.1135 235.17 54.4901C235.211 65.8667 230.753 76.7982 222.767 84.9008L186.19 121.478C186.375 127.576 185.677 133.669 184.119 139.567L230.776 92.9098C240.983 82.7031 246.717 68.8598 246.717 54.4253C246.717 39.9908 240.983 26.1476 230.776 15.9408C220.569 5.73409 206.726 0 192.291 0C177.857 0 164.014 5.73409 153.807 15.9408Z" fill="url(#paint1_linear_2_13)"/>
<defs>
<linearGradient id="paint0_linear_2_13" x1="-70.752" y1="130.687" x2="258.823" y2="44.4537" gradientUnits="userSpaceOnUse">
<stop stop-color="white"/>
<stop offset="0.502" stop-color="#FFF1F1"/>
<stop offset="1" stop-color="#FEE0DF"/>
</linearGradient>
<linearGradient id="paint1_linear_2_13" x1="-69.5017" y1="136.217" x2="264.718" y2="74.4764" gradientUnits="userSpaceOnUse">
<stop stop-color="white"/>
<stop offset="0.502" stop-color="#FFF1F1"/>
<stop offset="1" stop-color="#FEE0DF"/>
</linearGradient>
</defs>
</svg>
